<?xml version="1.0" encoding="UTF-8" standalone="no"?>
<svg
   xmlns:dc="http://purl.org/dc/elements/1.1/"
   xmlns:cc="http://creativecommons.org/ns#"
   xmlns:rdf="http://www.w3.org/1999/02/22-rdf-syntax-ns#"
   xmlns:svg="http://www.w3.org/2000/svg"
   xmlns="http://www.w3.org/2000/svg"
   xmlns:xlink="http://www.w3.org/1999/xlink"
   xmlns:sodipodi="http://sodipodi.sourceforge.net/DTD/sodipodi-0.dtd"
   xmlns:inkscape="http://www.inkscape.org/namespaces/inkscape"
   enable-background="new 0 0 78.4 73.4"
   id="Layer_1"
   version="1.1"
   viewBox="0 0 47.999999 47.999999"
   xml:space="preserve"
   inkscape:version="0.48.4 r9939"
   width="100%"
   height="100%"
   sodipodi:docname="twitter2.svg"
   inkscape:export-filename="/var/www/intothewhile/src/twitter2.png"
   inkscape:export-xdpi="60"
   inkscape:export-ydpi="60"><metadata
     id="metadata55"><rdf:RDF><cc:Work
         rdf:about=""><dc:format>image/svg+xml</dc:format><dc:type
           rdf:resource="http://purl.org/dc/dcmitype/StillImage" /><dc:title></dc:title></cc:Work></rdf:RDF></metadata><defs
     id="defs53" /><sodipodi:namedview
     pagecolor="#ffffff"
     bordercolor="#666666"
     borderopacity="1"
     objecttolerance="10"
     gridtolerance="10"
     guidetolerance="10"
     inkscape:pageopacity="0"
     inkscape:pageshadow="2"
     inkscape:window-width="1920"
     inkscape:window-height="1056"
     id="namedview51"
     showgrid="false"
     fit-margin-top="0"
     fit-margin-left="0"
     fit-margin-right="0"
     fit-margin-bottom="0"
     inkscape:zoom="4.5470627"
     inkscape:cx="16.534422"
     inkscape:cy="19.736183"
     inkscape:window-x="0"
     inkscape:window-y="24"
     inkscape:window-maximized="1"
     inkscape:current-layer="g3" /><g
     id="g3"
     transform="translate(-15.200002,-12.7)"><circle
       cx="39.200001"
       cy="36.700001"
       r="24"
       id="circle5"
       sodipodi:cx="39.200001"
       sodipodi:cy="36.700001"
       sodipodi:rx="24"
       sodipodi:ry="24"
       style="fill:#ffffff"
       d="m 63.200001,36.700001 c 0,13.254834 -10.745166,24 -24,24 -13.254834,0 -24,-10.745166 -24,-24 0,-13.254834 10.745166,-24 24,-24 13.254834,0 24,10.745166 24,24 z" /><g
       id="g7"><g
         id="g9"><defs
           id="defs11"><path
             d="m 63.2,36.7 c 0,13.3 -10.7,24 -24,24 -13.3,0 -24,-10.7 -24,-24 0,-13.3 10.7,-24 24,-24 13.2,0 24,10.7 24,24 z"
             id="SVGID_40_"
             inkscape:connector-curvature="0" /></defs><clipPath
           id="SVGID_2_"><use
             overflow="visible"
             xlink:href="#SVGID_40_"
             id="use15"
             style="overflow:visible"
             x="0"
             y="0"
             width="78.400002"
             height="73.400002" /></clipPath><linearGradient
           gradientTransform="matrix(0.9887,0.1498,-0.1498,0.9887,-19.6899,-7.3864)"
           gradientUnits="userSpaceOnUse"
           id="SVGID_3_"
           x1="10.6225"
           x2="79.388298"
           y1="2.2416"
           y2="34.302299"><stop
             offset="0"
             style="stop-color:#FFFFFF"
             id="stop18" /><stop
             offset="0.7212"
             style="stop-color:#FFFFFF;stop-opacity:0.3676"
             id="stop20" /><stop
             offset="1"
             style="stop-color:#FFFFFF;stop-opacity:0"
             id="stop22" /></linearGradient><polygon
           clip-path="url(#SVGID_2_)"
           points="-8.5,28.5 47.4,-12.7 69.9,17.8 13.9,59 "
           id="polygon24"
           style="opacity:0.50000000000000000;fill:#ffffff" /></g></g><g
       id="g26"
       style="fill:#56bbe7;fill-opacity:1"><path
         d="m 52,26.1 c -1.1,0.6 -2.3,1.1 -3.5,1.4 -1,-1.1 -2.5,-1.8 -4.1,-1.8 -3.1,0 -5.6,2.5 -5.6,5.6 0,0.4 0.1,0.9 0.1,1.3 -4.6,-0.2 -8.7,-2.4 -11.5,-5.8 -0.5,0.8 -0.8,1.8 -0.8,2.8 0,1.9 1,3.6 2.5,4.6 -0.9,0 -1.8,-0.3 -2.5,-0.7 0,0 0,0 0,0.1 0,2.7 1.9,4.9 4.5,5.5 -0.5,0.1 -1,0.2 -1.5,0.2 -0.4,0 -0.7,0 -1,-0.1 0.7,2.2 2.8,3.8 5.2,3.9 -1.9,1.5 -4.3,2.4 -6.9,2.4 -0.4,0 -0.9,0 -1.3,-0.1 2.5,1.6 5.4,2.5 8.5,2.5 10.2,0 15.8,-8.5 15.8,-15.8 0,-0.2 0,-0.5 0,-0.7 1.1,-0.8 2,-1.8 2.8,-2.9 -1,0.4 -2.1,0.7 -3.2,0.9 1.2,-0.9 2.1,-2 2.5,-3.3 z"
         id="path28"
         inkscape:connector-curvature="0"
         style="fill:#56bbe7;fill-opacity:1" /></g></g></svg>